<svg xmlns="http://www.w3.org/2000/svg" viewBox="0 0 32 32">
  <defs>
    <linearGradient id="bg" x1="4" y1="3" x2="28" y2="29" gradientUnits="userSpaceOnUse">
      <stop stop-color="#0b1220"/>
      <stop offset="1" stop-color="#111827"/>
    </linearGradient>
    <linearGradient id="accent" x1="8" y1="25" x2="26" y2="7" gradientUnits="userSpaceOnUse">
      <stop stop-color="#60a5fa"/>
      <stop offset=".55" stop-color="#38bdf8"/>
      <stop offset="1" stop-color="#a78bfa"/>
    </linearGradient>
  </defs>
  <rect width="32" height="32" rx="9" fill="url(#bg)"/>
  <rect x="1" y="1" width="30" height="30" rx="8" fill="none" stroke="url(#accent)" stroke-width="2"/>
  <path fill="#f8fafc" d="M8 7h4v15h9v4H8z"/>
  <path fill="#f8fafc" d="M16 7h4.5C26 7 29 10.7 29 16s-3 9-8.5 9H16v-4h4c3 0 5-2 5-5s-2-5-5-5h-4z"/>
  <circle cx="17" cy="16" r="4.8" fill="#0f172a" stroke="url(#accent)" stroke-width="1.6"/>
  <path fill="none" stroke="#38bdf8" stroke-width="1.4" stroke-linecap="round" d="M21 13h4M21.8 16h5M21 19h4"/>
</svg>
